<mxfile host="app.diagrams.net" modified="2024-03-14T22:45:19.425Z" agent="Mozilla/5.0 (Macintosh; Intel Mac OS X 10_15_7) AppleWebKit/605.1.15 (KHTML, like Gecko) Version/14.1.2 Safari/605.1.15" version="24.0.6" etag="Q0a3YeyO8hlLwTcNUEsH" type="github">
  <diagram name="Page-1" id="VlmLmh17E0jQvhtmeEl0">
    <mxGraphModel>
      <root>
        <mxCell id="0" />
        <mxCell id="1" parent="0" />
      </root>
    </mxGraphModel>
  </diagram>
</mxfile>
